<svg viewBox="0 0 133 40" fill="none" xmlns="http://www.w3.org/2000/svg">
<path d="M2.87695 34.9609L4.16602 30.6602H5.68359L3.16406 37.9609C2.77734 39.0273 2.12109 39.5605 1.19531 39.5605C0.988281 39.5605 0.759766 39.5254 0.509766 39.4551V38.3535L0.779297 38.3711C1.13867 38.3711 1.4082 38.3047 1.58789 38.1719C1.77148 38.043 1.91602 37.8242 2.02148 37.5156L2.22656 36.9707L0 30.6602H1.53516L2.87695 34.9609Z" fill="#788891"/>
<path d="M10.2715 35.248L12.1465 30.6602H13.9277V37H12.5039V32.8047L10.7578 37H9.79102L8.03906 32.7812V37H6.61523V30.6602H8.4082L10.2715 35.248Z" fill="#788891"/>
<path d="M20.9004 37H19.4766V34.4395H17.0098V37H15.5859V30.6602H17.0098V33.3027H19.4766V30.6602H20.9004V37Z" fill="#788891"/>
<path d="M23.9531 32.6758H25.3477C25.8672 32.6758 26.3203 32.7656 26.707 32.9453C27.0938 33.125 27.3867 33.377 27.5859 33.7012C27.7891 34.0254 27.8906 34.4023 27.8906 34.832C27.8906 35.4844 27.6602 36.0078 27.1992 36.4023C26.7383 36.7969 26.125 36.9961 25.3594 37H22.5293V30.6602H23.9531V32.6758ZM30.3691 37H28.9453V30.6602H30.3691V37ZM23.9531 33.8184V35.8633H25.3418C25.6895 35.8633 25.9629 35.7773 26.1621 35.6055C26.3652 35.4297 26.4668 35.1816 26.4668 34.8613C26.4668 34.541 26.3672 34.2891 26.168 34.1055C25.9727 33.918 25.707 33.8223 25.3711 33.8184H23.9531Z" fill="#788891"/>
<path d="M34.8691 37.1172C33.9668 37.1172 33.2344 36.834 32.6719 36.2676C32.1133 35.6973 31.834 34.9395 31.834 33.9941V33.8184C31.834 33.1855 31.9551 32.6211 32.1973 32.125C32.4434 31.625 32.7871 31.2363 33.2285 30.959C33.6699 30.6816 34.1621 30.543 34.7051 30.543C35.5684 30.543 36.2344 30.8184 36.7031 31.3691C37.1758 31.9199 37.4121 32.6992 37.4121 33.707V34.2812H33.2695C33.3125 34.8047 33.4863 35.2188 33.791 35.5234C34.0996 35.8281 34.4863 35.9805 34.9512 35.9805C35.6035 35.9805 36.1348 35.7168 36.5449 35.1895L37.3125 35.9219C37.0586 36.3008 36.7188 36.5957 36.293 36.8066C35.8711 37.0137 35.3965 37.1172 34.8691 37.1172ZM34.6992 31.6855C34.3086 31.6855 33.9922 31.8223 33.75 32.0957C33.5117 32.3691 33.3594 32.75 33.293 33.2383H36.0059V33.1328C35.9746 32.6562 35.8477 32.2969 35.625 32.0547C35.4023 31.8086 35.0938 31.6855 34.6992 31.6855Z" fill="#788891"/>
<path d="M46.5 31.791H44.4434V37H43.0195V31.791H40.9863V30.6602H46.5V31.791Z" fill="#788891"/>
<path d="M49.8691 37.1172C48.9668 37.1172 48.2344 36.834 47.6719 36.2676C47.1133 35.6973 46.834 34.9395 46.834 33.9941V33.8184C46.834 33.1855 46.9551 32.6211 47.1973 32.125C47.4434 31.625 47.7871 31.2363 48.2285 30.959C48.6699 30.6816 49.1621 30.543 49.7051 30.543C50.5684 30.543 51.2344 30.8184 51.7031 31.3691C52.1758 31.9199 52.4121 32.6992 52.4121 33.707V34.2812H48.2695C48.3125 34.8047 48.4863 35.2188 48.791 35.5234C49.0996 35.8281 49.4863 35.9805 49.9512 35.9805C50.6035 35.9805 51.1348 35.7168 51.5449 35.1895L52.3125 35.9219C52.0586 36.3008 51.7188 36.5957 51.293 36.8066C50.8711 37.0137 50.3965 37.1172 49.8691 37.1172ZM49.6992 31.6855C49.3086 31.6855 48.9922 31.8223 48.75 32.0957C48.5117 32.3691 48.3594 32.75 48.293 33.2383H51.0059V33.1328C50.9746 32.6562 50.8477 32.2969 50.625 32.0547C50.4023 31.8086 50.0938 31.6855 49.6992 31.6855Z" fill="#788891"/>
<path d="M55.7988 32.7461L57.0059 30.6602H58.5879L56.6484 33.7832L58.6523 37H57.082L55.8164 34.832L54.5566 37H52.9746L54.9785 33.7832L53.0449 30.6602H54.6152L55.7988 32.7461Z" fill="#788891"/>
<path d="M64.9277 37H63.5039V34.4395H61.0371V37H59.6133V30.6602H61.0371V33.3027H63.5039V30.6602H64.9277V37Z" fill="#788891"/>
<path d="M66.1816 33.7715C66.1816 33.1504 66.3047 32.5918 66.5508 32.0957C66.7969 31.5957 67.1426 31.2129 67.5879 30.9473C68.0332 30.6777 68.5449 30.543 69.123 30.543C69.9785 30.543 70.6719 30.8184 71.2031 31.3691C71.7383 31.9199 72.0273 32.6504 72.0703 33.5605L72.0762 33.8945C72.0762 34.5195 71.9551 35.0781 71.7129 35.5703C71.4746 36.0625 71.1309 36.4434 70.6816 36.7129C70.2363 36.9824 69.7207 37.1172 69.1348 37.1172C68.2402 37.1172 67.5234 36.8203 66.9844 36.2266C66.4492 35.6289 66.1816 34.834 66.1816 33.8418V33.7715ZM67.6055 33.8945C67.6055 34.5469 67.7402 35.0586 68.0098 35.4297C68.2793 35.7969 68.6543 35.9805 69.1348 35.9805C69.6152 35.9805 69.9883 35.793 70.2539 35.418C70.5234 35.043 70.6582 34.4941 70.6582 33.7715C70.6582 33.1309 70.5195 32.623 70.2422 32.248C69.9688 31.873 69.5957 31.6855 69.123 31.6855C68.6582 31.6855 68.2891 31.8711 68.0156 32.2422C67.7422 32.6094 67.6055 33.1602 67.6055 33.8945Z" fill="#788891"/>
<path d="M78.5742 30.6602V37H77.1504V31.8086H75.3574L75.2402 34.0176C75.166 35.0801 74.9609 35.8438 74.625 36.3086C74.293 36.7695 73.7832 37 73.0957 37H72.6562L72.6504 35.8164L72.9434 35.7871C73.2559 35.7441 73.4824 35.5547 73.623 35.2188C73.7676 34.8789 73.8594 34.2617 73.8984 33.3672L74.0156 30.6602H78.5742Z" fill="#788891"/>
<path d="M79.8223 33.7715C79.8223 33.1504 79.9453 32.5918 80.1914 32.0957C80.4375 31.5957 80.7832 31.2129 81.2285 30.9473C81.6738 30.6777 82.1855 30.543 82.7637 30.543C83.6191 30.543 84.3125 30.8184 84.8438 31.3691C85.3789 31.9199 85.668 32.6504 85.7109 33.5605L85.7168 33.8945C85.7168 34.5195 85.5957 35.0781 85.3535 35.5703C85.1152 36.0625 84.7715 36.4434 84.3223 36.7129C83.877 36.9824 83.3613 37.1172 82.7754 37.1172C81.8809 37.1172 81.1641 36.8203 80.625 36.2266C80.0898 35.6289 79.8223 34.834 79.8223 33.8418V33.7715ZM81.2461 33.8945C81.2461 34.5469 81.3809 35.0586 81.6504 35.4297C81.9199 35.7969 82.2949 35.9805 82.7754 35.9805C83.2559 35.9805 83.6289 35.793 83.8945 35.418C84.1641 35.043 84.2988 34.4941 84.2988 33.7715C84.2988 33.1309 84.1602 32.623 83.8828 32.248C83.6094 31.873 83.2363 31.6855 82.7637 31.6855C82.2988 31.6855 81.9297 31.8711 81.6562 32.2422C81.3828 32.6094 81.2461 33.1602 81.2461 33.8945Z" fill="#788891"/>
<path d="M91.1426 31.8086H88.3887V37H86.9707V30.6602H91.1426V31.8086Z" fill="#788891"/>
<path d="M95.9062 30.6602H97.3242V37H95.9062V32.7695L93.4219 37H92.0039V30.6602H93.4219V34.8906L95.9062 30.6602Z" fill="#788891"/>
<path d="M102.797 30.6602H104.215V37H102.797V32.7695L100.312 37H98.8945V30.6602H100.312V34.8906L102.797 30.6602Z" fill="#788891"/>
<path d="M8.96191 13.7939C8.96191 13.0697 8.77474 12.5244 8.40039 12.1582C8.03418 11.7839 7.36279 11.3973 6.38623 10.9985C4.604 10.3231 3.32227 9.53369 2.54102 8.63037C1.75977 7.71891 1.36914 6.64469 1.36914 5.40771C1.36914 3.91032 1.89811 2.70996 2.95605 1.80664C4.02214 0.895182 5.37305 0.439453 7.00879 0.439453C8.09928 0.439453 9.07178 0.671387 9.92627 1.13525C10.7808 1.59098 11.4359 2.23796 11.8916 3.07617C12.3555 3.91439 12.5874 4.86654 12.5874 5.93262H9.01074C9.01074 5.10254 8.83171 4.47184 8.47363 4.04053C8.1237 3.60107 7.61507 3.38135 6.94775 3.38135C6.32113 3.38135 5.83285 3.56852 5.48291 3.94287C5.13298 4.30908 4.95801 4.8055 4.95801 5.43213C4.95801 5.92041 5.15332 6.36393 5.54395 6.7627C5.93457 7.15332 6.6263 7.56022 7.61914 7.9834C9.35254 8.61003 10.6099 9.37907 11.3911 10.2905C12.1805 11.202 12.5752 12.3617 12.5752 13.7695C12.5752 15.3158 12.0828 16.5243 11.0981 17.395C10.1134 18.2658 8.77474 18.7012 7.08203 18.7012C5.93457 18.7012 4.88883 18.4652 3.94482 17.9932C3.00081 17.5212 2.26025 16.8457 1.72314 15.9668C1.19417 15.0879 0.929688 14.0503 0.929688 12.854H4.53076C4.53076 13.8794 4.73014 14.624 5.12891 15.0879C5.52767 15.5518 6.17871 15.7837 7.08203 15.7837C8.33529 15.7837 8.96191 15.1204 8.96191 13.7939Z" fill="white"/>
<path d="M18.0317 5.24902L18.1294 6.46973C18.9025 5.49316 19.9238 5.00488 21.1934 5.00488C22.5117 5.00488 23.4435 5.59896 23.9888 6.78711C24.7456 5.59896 25.8239 5.00488 27.2236 5.00488C29.5348 5.00488 30.7189 6.604 30.7759 9.80225V18.457H27.3213V10.022C27.3213 9.257 27.2155 8.71175 27.0039 8.38623C26.7923 8.06071 26.4342 7.89795 25.9297 7.89795C25.2868 7.89795 24.8066 8.29264 24.4893 9.08203L24.5137 9.49707V18.457H21.0591V10.0464C21.0591 9.28955 20.9574 8.7443 20.7539 8.41064C20.5505 8.06885 20.1883 7.89795 19.6675 7.89795C19.0734 7.89795 18.6014 8.2194 18.2515 8.8623V18.457H14.7969V5.24902H18.0317Z" fill="white"/>
<path d="M39.6138 18.457C39.5161 18.2536 39.4185 17.9118 39.3208 17.4316C38.7023 18.278 37.8641 18.7012 36.8062 18.7012C35.6994 18.7012 34.7798 18.335 34.0474 17.6025C33.3231 16.8701 32.9609 15.922 32.9609 14.7583C32.9609 13.3748 33.4004 12.3047 34.2793 11.5479C35.1663 10.791 36.4399 10.4045 38.1001 10.3882H39.1499V9.32617C39.1499 8.7321 39.0482 8.31299 38.8447 8.06885C38.6413 7.82471 38.3442 7.70264 37.9536 7.70264C37.091 7.70264 36.6597 8.20719 36.6597 9.21631H33.2051C33.2051 7.99561 33.6608 6.99056 34.5723 6.20117C35.4919 5.40365 36.6515 5.00488 38.0513 5.00488C39.4998 5.00488 40.6188 5.3833 41.4082 6.14014C42.2057 6.88883 42.6045 7.96305 42.6045 9.36279V15.5762C42.6208 16.7155 42.7835 17.6066 43.0928 18.2495V18.457H39.6138ZM37.5752 15.9912C37.9577 15.9912 38.2832 15.9139 38.5518 15.7593C38.8203 15.6047 39.0197 15.4215 39.1499 15.21V12.4634H38.3198C37.7339 12.4634 37.27 12.6506 36.9282 13.0249C36.5946 13.3993 36.4277 13.8997 36.4277 14.5264C36.4277 15.5029 36.8102 15.9912 37.5752 15.9912Z" fill="white"/>
<path d="M51.6255 8.58154L50.478 8.48389C49.534 8.48389 48.8952 8.89893 48.5615 9.729V18.457H45.0947V5.24902H48.354L48.4517 6.67725C48.9969 5.56234 49.7497 5.00488 50.71 5.00488C51.1006 5.00488 51.418 5.05778 51.6621 5.16357L51.6255 8.58154Z" fill="white"/>
<path d="M58.0342 2.00195V5.24902H59.8042V7.84912H58.0342V14.4043C58.0342 14.9251 58.1034 15.2832 58.2417 15.4785C58.3882 15.6738 58.6649 15.7715 59.0718 15.7715C59.4054 15.7715 59.6781 15.743 59.8896 15.686L59.8652 18.3716C59.2793 18.5913 58.6445 18.7012 57.9609 18.7012C55.7311 18.7012 54.604 17.4235 54.5796 14.8682V7.84912H53.0537V5.24902H54.5796V2.00195H58.0342Z" fill="white"/>
<path d="M67.6411 18.457V0.683594H72.3408C74.416 0.683594 76.068 1.34277 77.2969 2.66113C78.5339 3.97949 79.1646 5.78613 79.189 8.08105V10.9619C79.189 13.2975 78.5705 15.1326 77.3335 16.4673C76.1047 17.7938 74.4079 18.457 72.2432 18.457H67.6411ZM71.23 3.67432V15.4785H72.3042C73.5005 15.4785 74.3428 15.1652 74.8311 14.5386C75.3193 13.9038 75.5757 12.8133 75.6001 11.2671V8.17871C75.6001 6.51855 75.3682 5.36296 74.9043 4.71191C74.4404 4.05273 73.651 3.70687 72.5361 3.67432H71.23Z" fill="white"/>
<path d="M86.9404 18.7012C85.1663 18.7012 83.7829 18.1722 82.79 17.1143C81.7972 16.0563 81.3008 14.5426 81.3008 12.5732V11.5234C81.3008 9.4401 81.7565 7.83285 82.668 6.70166C83.5794 5.57048 84.8856 5.00488 86.5864 5.00488C88.2466 5.00488 89.4958 5.53792 90.334 6.604C91.1722 7.66195 91.5994 9.23258 91.6157 11.3159V13.0127H84.7432C84.792 13.9893 85.0076 14.7054 85.3901 15.1611C85.7726 15.6087 86.3626 15.8325 87.1602 15.8325C88.3158 15.8325 89.2801 15.4378 90.0532 14.6484L91.4082 16.7358C90.985 17.3218 90.3706 17.7979 89.5649 18.1641C88.7593 18.5221 87.8844 18.7012 86.9404 18.7012ZM84.7676 10.5957H88.2222V10.2783C88.2059 9.48893 88.0757 8.89079 87.8315 8.48389C87.5874 8.07699 87.1642 7.87354 86.562 7.87354C85.9598 7.87354 85.5203 8.08919 85.2437 8.52051C84.9751 8.95182 84.8164 9.64355 84.7676 10.5957Z" fill="white"/>
<path d="M97.7314 13.5742L99.4038 5.24902H103.005L99.3794 18.457H96.0835L92.4458 5.24902H96.0591L97.7314 13.5742Z" fill="white"/>
<path d="M108.254 18.457H104.787V5.24902H108.254V18.457ZM104.628 1.83105C104.628 1.29395 104.799 0.854492 105.141 0.512695C105.483 0.170898 105.939 0 106.508 0C107.078 0 107.534 0.170898 107.875 0.512695C108.217 0.854492 108.388 1.29395 108.388 1.83105C108.388 2.36003 108.217 2.79948 107.875 3.14941C107.542 3.49935 107.086 3.67432 106.508 3.67432C105.931 3.67432 105.471 3.49935 105.129 3.14941C104.795 2.79948 104.628 2.36003 104.628 1.83105Z" fill="white"/>
<path d="M115.7 15.8325C116.701 15.8325 117.21 15.1815 117.226 13.8794H120.473C120.457 15.3198 120.013 16.4836 119.143 17.3706C118.272 18.2576 117.149 18.7012 115.773 18.7012C114.073 18.7012 112.775 18.1722 111.879 17.1143C110.984 16.0563 110.528 14.4979 110.512 12.439V11.3892C110.512 9.31396 110.952 7.73112 111.831 6.64062C112.718 5.55013 114.024 5.00488 115.749 5.00488C117.206 5.00488 118.353 5.45654 119.191 6.35986C120.03 7.25505 120.457 8.52865 120.473 10.1807H117.226C117.218 9.4401 117.096 8.87044 116.86 8.47168C116.624 8.07292 116.233 7.87354 115.688 7.87354C115.086 7.87354 114.654 8.08919 114.394 8.52051C114.134 8.94368 113.995 9.76969 113.979 10.9985V12.3413C113.979 13.4155 114.032 14.1683 114.138 14.5996C114.243 15.0228 114.418 15.3361 114.663 15.5396C114.907 15.7349 115.253 15.8325 115.7 15.8325Z" fill="white"/>
<path d="M127.761 18.7012C125.987 18.7012 124.603 18.1722 123.61 17.1143C122.618 16.0563 122.121 14.5426 122.121 12.5732V11.5234C122.121 9.4401 122.577 7.83285 123.488 6.70166C124.4 5.57048 125.706 5.00488 127.407 5.00488C129.067 5.00488 130.316 5.53792 131.154 6.604C131.993 7.66195 132.42 9.23258 132.436 11.3159V13.0127H125.563C125.612 13.9893 125.828 14.7054 126.21 15.1611C126.593 15.6087 127.183 15.8325 127.98 15.8325C129.136 15.8325 130.1 15.4378 130.874 14.6484L132.229 16.7358C131.805 17.3218 131.191 17.7979 130.385 18.1641C129.58 18.5221 128.705 18.7012 127.761 18.7012ZM125.588 10.5957H129.042V10.2783C129.026 9.48893 128.896 8.89079 128.652 8.48389C128.408 8.07699 127.985 7.87354 127.382 7.87354C126.78 7.87354 126.341 8.08919 126.064 8.52051C125.795 8.95182 125.637 9.64355 125.588 10.5957Z" fill="white"/>
</svg>
